<svg width="25" height="24" viewBox="0 0 25 24" fill="none" xmlns="http://www.w3.org/2000/svg">
<path d="M5.00391 12C5.00391 11.1969 5.3093 10.4941 5.92007 9.99216L12.6386 4.47059C13.2494 3.96863 14.1656 3.86824 14.8782 4.16941C15.5907 4.47059 16.0997 5.17333 16.0997 5.97647V8.28549H19.6626C20.9859 8.28549 22.0039 9.3898 22.0039 10.6949V13.4055C22.0039 14.7106 20.9859 15.7145 19.6626 15.7145H16.0997V18.0235C16.0997 18.8267 15.6925 19.5294 14.8782 19.8306C14.1656 20.1318 13.3512 20.0314 12.7404 19.5294L5.92007 14.0078C5.3093 13.5059 5.00391 12.8031 5.00391 12ZM13.962 5.97647L7.24343 11.498C7.03983 11.6988 7.03984 11.8996 7.03984 12C7.03984 12.1004 7.03983 12.3012 7.24343 12.502L13.962 18.0235V14.7106C13.962 14.1082 14.3692 13.7067 14.98 13.7067H19.6626C19.8662 13.7067 19.968 13.5059 19.968 13.4055V10.6949C19.968 10.4941 19.7644 10.2933 19.6626 10.2933H15.0818C14.471 10.2933 14.0638 9.89177 14.0638 9.28941V5.97647H13.962Z" fill="#CA3030"/>
<path d="M2.00391 18.4179L2.00391 5.48259C2.00391 3.49254 3.50391 2 5.50391 2H8.00391C8.60391 2 9.00391 2.39801 9.00391 2.99502C9.00391 3.59204 8.60391 3.99005 8.00391 3.99005H5.50391C4.70391 3.99005 4.00391 4.68657 4.00391 5.48259L4.00391 18.5174C4.00391 19.3134 4.70391 20.01 5.50391 20.01H8.00391C8.60391 20.01 9.00391 20.408 9.00391 21.005C9.00391 21.602 8.60391 22 8.00391 22H5.50391C3.50391 21.9005 2.00391 20.408 2.00391 18.4179Z" fill="#CA3030"/>
</svg>
