<svg width="32" height="32" viewBox="0 0 32 32" fill="none" xmlns="http://www.w3.org/2000/svg">
<rect x="0.000976562" width="32" height="32" rx="6" fill="#F02C2C"/>
<g clip-path="url(#clip0_2383_6692)">
<path fill-rule="evenodd" clip-rule="evenodd" d="M12.9354 9.33341C12.9354 8.96522 13.2338 8.66675 13.602 8.66675H18.402C18.7702 8.66675 19.0687 8.96522 19.0687 9.33341C19.0687 9.7016 18.7702 10.0001 18.402 10.0001H13.602C13.2338 10.0001 12.9354 9.7016 12.9354 9.33341ZM8.6687 11.7334C8.6687 11.3652 8.96718 11.0667 9.33537 11.0667H22.6687C23.0369 11.0667 23.3354 11.3652 23.3354 11.7334C23.3354 12.1016 23.0369 12.4001 22.6687 12.4001H21.7354V20.2667C21.7354 21.9683 20.3702 23.3334 18.6687 23.3334H13.3354C11.6219 23.3334 10.2687 21.9562 10.2687 20.2001V12.4001H9.33537C8.96718 12.4001 8.6687 12.1016 8.6687 11.7334ZM11.602 12.4001V20.2001C11.602 21.2439 12.3821 22.0001 13.3354 22.0001H18.6687C19.6338 22.0001 20.402 21.2319 20.402 20.2667V12.4001H11.602ZM14.202 14.1334C14.5702 14.1334 14.8687 14.4319 14.8687 14.8001V19.6667C14.8687 20.0349 14.5702 20.3334 14.202 20.3334C13.8338 20.3334 13.5354 20.0349 13.5354 19.6667V14.8001C13.5354 14.4319 13.8338 14.1334 14.202 14.1334ZM17.802 14.1334C18.1702 14.1334 18.4687 14.4319 18.4687 14.8001V19.6667C18.4687 20.0349 18.1702 20.3334 17.802 20.3334C17.4338 20.3334 17.1354 20.0349 17.1354 19.6667V14.8001C17.1354 14.4319 17.4338 14.1334 17.802 14.1334Z" fill="white"/>
</g>
<defs>
<clipPath id="clip0_2383_6692">
<rect width="16" height="16" fill="white" transform="translate(8.00195 8)"/>
</clipPath>
</defs>
</svg>
